<svg xmlns="http://www.w3.org/2000/svg" width="40" height="40" fill="none" viewBox="0 0 40 40"><path fill="#0ACF83" d="M13.3332 40C17.0132 40 19.9998 37.0133 19.9998 33.3333V26.6667H13.3332C9.65317 26.6667 6.6665 29.6533 6.6665 33.3333C6.6665 37.0133 9.65317 40 13.3332 40Z"/><path fill="#A259FF" d="M6.6665 20C6.6665 16.32 9.65317 13.3333 13.3332 13.3333H19.9998V26.6667H13.3332C9.65317 26.6667 6.6665 23.68 6.6665 20Z"/><path fill="#F24E1E" d="M6.6665 6.66667C6.6665 2.98667 9.65317 0 13.3332 0H19.9998V13.3333H13.3332C9.65317 13.3333 6.6665 10.3467 6.6665 6.66667Z"/><path fill="#FF7262" d="M20 0H26.6667C30.3467 0 33.3333 2.98667 33.3333 6.66667C33.3333 10.3467 30.3467 13.3333 26.6667 13.3333H20V0Z"/><path fill="#1ABCFE" d="M33.3333 20C33.3333 23.6801 30.3467 26.6667 26.6667 26.6667C22.9867 26.6667 20 23.6801 20 20C20 16.32 22.9867 13.3333 26.6667 13.3333C30.3467 13.3333 33.3333 16.32 33.3333 20Z"/></svg>